<svg id="图层_1" data-name="图层 1" xmlns="http://www.w3.org/2000/svg" viewBox="0 0 35.68 11.71"><defs><style>.cls-1{fill:#231815;}</style></defs><title>language_E 1</title><path class="cls-1" d="M5.55,10.2H1.1V1.8H5.37v.89H2.09V5.48h3v.89h-3V9.31H5.55Z" transform="translate(-1.1 -1.32)"/><path class="cls-1" d="M12,10.2h-1V6.78c0-1.27-.46-1.91-1.39-1.91a1.5,1.5,0,0,0-1.19.54A2,2,0,0,0,8,6.78V10.2H7v-6H8v1H8a2.16,2.16,0,0,1,2-1.14,1.82,1.82,0,0,1,1.5.64A2.79,2.79,0,0,1,12,6.53Z" transform="translate(-1.1 -1.32)"/><path class="cls-1" d="M19,9.72C19,11.92,17.9,13,15.79,13a4.24,4.24,0,0,1-1.94-.43v-1a3.94,3.94,0,0,0,1.93.57c1.48,0,2.21-.79,2.21-2.36V9.19h0a2.24,2.24,0,0,1-2.06,1.15,2.22,2.22,0,0,1-1.8-.8,3.17,3.17,0,0,1-.69-2.15A3.75,3.75,0,0,1,14.16,5a2.46,2.46,0,0,1,2-.9A2,2,0,0,1,18,5h0V4.2h1ZM18,7.49V6.6a1.72,1.72,0,0,0-.48-1.22,1.58,1.58,0,0,0-1.2-.51,1.66,1.66,0,0,0-1.4.65,2.91,2.91,0,0,0-.5,1.81,2.48,2.48,0,0,0,.48,1.6,1.56,1.56,0,0,0,1.28.6A1.69,1.69,0,0,0,17.49,9,2.12,2.12,0,0,0,18,7.49Z" transform="translate(-1.1 -1.32)"/><path class="cls-1" d="M21.86,10.2h-1V1.32h1Z" transform="translate(-1.1 -1.32)"/><path class="cls-1" d="M24.3,2.68a.6.6,0,0,1-.44-.18.59.59,0,0,1-.18-.44.61.61,0,0,1,.18-.45.6.6,0,0,1,.44-.18.64.64,0,0,1,.45.18.61.61,0,0,1,.18.45.6.6,0,0,1-.18.44A.64.64,0,0,1,24.3,2.68Zm.47,7.52h-1v-6h1Z" transform="translate(-1.1 -1.32)"/><path class="cls-1" d="M26.35,10V9a2.82,2.82,0,0,0,1.73.58q1.26,0,1.26-.84a.76.76,0,0,0-.1-.41,1,1,0,0,0-.3-.29,2.19,2.19,0,0,0-.43-.24L28,7.54a5.79,5.79,0,0,1-.7-.32,2.22,2.22,0,0,1-.5-.36,1.38,1.38,0,0,1-.31-.46,1.81,1.81,0,0,1-.1-.61,1.48,1.48,0,0,1,.19-.74,1.82,1.82,0,0,1,.52-.55,2.77,2.77,0,0,1,.74-.33,3.56,3.56,0,0,1,2.24.16v1a2.7,2.7,0,0,0-1.52-.43,1.88,1.88,0,0,0-.49.06,1.26,1.26,0,0,0-.37.17,1,1,0,0,0-.24.27.66.66,0,0,0-.08.34.82.82,0,0,0,.08.4,1.07,1.07,0,0,0,.25.28,2.11,2.11,0,0,0,.4.22l.53.22a6.21,6.21,0,0,1,.72.31,2.82,2.82,0,0,1,.54.36,1.57,1.57,0,0,1,.34.47,1.48,1.48,0,0,1,.12.63,1.5,1.5,0,0,1-.2.77,1.58,1.58,0,0,1-.52.54,2.28,2.28,0,0,1-.76.33,3.68,3.68,0,0,1-.89.1A3.39,3.39,0,0,1,26.35,10Z" transform="translate(-1.1 -1.32)"/><path class="cls-1" d="M36.79,10.2h-1V6.74c0-1.25-.46-1.87-1.39-1.87a1.51,1.51,0,0,0-1.18.54,2,2,0,0,0-.48,1.39v3.4h-1V1.32h1V5.2h0a2.18,2.18,0,0,1,2-1.14c1.35,0,2,.82,2,2.44Z" transform="translate(-1.1 -1.32)"/></svg>