<svg id="图层_1" data-name="图层 1" xmlns="http://www.w3.org/2000/svg" viewBox="0 0 49.11 13.14"><defs><style>.cls-1{fill:#231815;}</style></defs><title>language</title><path class="cls-1" d="M1.93,10.2H1V1.32h1Z"/><path class="cls-1" d="M8.17,10.2h-1V9.26h0a2,2,0,0,1-1.85,1.08,2,2,0,0,1-1.4-.47,1.65,1.65,0,0,1-.51-1.26c0-1.12.66-1.78,2-2l1.8-.25Q7.21,4.87,6,4.87a3,3,0,0,0-2,.74v-1a3.76,3.76,0,0,1,2-.56c1.41,0,2.11.75,2.11,2.24Zm-1-3-1.44.2a2.25,2.25,0,0,0-1,.33.93.93,0,0,0-.34.84.89.89,0,0,0,.31.71,1.2,1.2,0,0,0,.84.28A1.53,1.53,0,0,0,6.75,9a1.77,1.77,0,0,0,.46-1.27Z"/><path class="cls-1" d="M15,10.2H14V6.78c0-1.27-.46-1.91-1.39-1.91a1.5,1.5,0,0,0-1.19.54A2,2,0,0,0,11,6.78V10.2H10v-6h1v1h0a2.16,2.16,0,0,1,2-1.14,1.81,1.81,0,0,1,1.5.64A2.79,2.79,0,0,1,15,6.53Z"/><path class="cls-1" d="M21.9,9.72c0,2.2-1.06,3.31-3.17,3.31a4.24,4.24,0,0,1-1.94-.43v-1a3.94,3.94,0,0,0,1.93.57c1.48,0,2.22-.79,2.22-2.36V9.19h0a2.23,2.23,0,0,1-2.06,1.15,2.22,2.22,0,0,1-1.8-.8,3.17,3.17,0,0,1-.68-2.15A3.75,3.75,0,0,1,17.1,5a2.46,2.46,0,0,1,2-.9,2,2,0,0,1,1.8,1h0V4.2h1Zm-1-2.23V6.6a1.73,1.73,0,0,0-.49-1.22,1.58,1.58,0,0,0-1.2-.51,1.66,1.66,0,0,0-1.4.65,2.91,2.91,0,0,0-.5,1.81,2.48,2.48,0,0,0,.48,1.6,1.57,1.57,0,0,0,1.28.6A1.69,1.69,0,0,0,20.43,9,2.12,2.12,0,0,0,20.94,7.49Z"/><path class="cls-1" d="M28.69,10.2h-1V9.25h0a2,2,0,0,1-1.85,1.09c-1.43,0-2.15-.85-2.15-2.55V4.2h1V7.63c0,1.27.48,1.9,1.45,1.9A1.46,1.46,0,0,0,27.28,9a2,2,0,0,0,.45-1.35V4.2h1Z"/><path class="cls-1" d="M34.93,10.2H34V9.26h0a2.2,2.2,0,0,1-3.25.61,1.68,1.68,0,0,1-.5-1.26c0-1.12.66-1.78,2-2L34,6.4c0-1-.42-1.53-1.24-1.53a3,3,0,0,0-2,.74v-1a3.76,3.76,0,0,1,2-.56c1.41,0,2.12.75,2.12,2.24Zm-1-3-1.45.2a2.3,2.3,0,0,0-1,.33,1,1,0,0,0-.34.84.9.9,0,0,0,.32.71,1.16,1.16,0,0,0,.83.28A1.51,1.51,0,0,0,33.5,9,1.78,1.78,0,0,0,34,7.76Z"/><path class="cls-1" d="M41.86,9.72c0,2.2-1.06,3.31-3.16,3.31a4.25,4.25,0,0,1-2-.43v-1a4,4,0,0,0,1.93.57c1.48,0,2.22-.79,2.22-2.36V9.19h0A2.43,2.43,0,0,1,37,9.54a3.22,3.22,0,0,1-.68-2.15A3.75,3.75,0,0,1,37.06,5a2.46,2.46,0,0,1,2-.9,2,2,0,0,1,1.8,1h0V4.2h1Zm-1-2.23V6.6a1.72,1.72,0,0,0-.48-1.22,1.62,1.62,0,0,0-1.21-.51,1.64,1.64,0,0,0-1.39.65,2.85,2.85,0,0,0-.51,1.81,2.43,2.43,0,0,0,.49,1.6,1.55,1.55,0,0,0,1.28.6A1.67,1.67,0,0,0,40.39,9,2.12,2.12,0,0,0,40.9,7.49Z"/><path class="cls-1" d="M48.63,7.44H44.39A2.28,2.28,0,0,0,44.93,9a1.87,1.87,0,0,0,1.42.54,3,3,0,0,0,1.86-.66v.9a3.5,3.5,0,0,1-2.09.57,2.53,2.53,0,0,1-2-.82,3.36,3.36,0,0,1-.73-2.3,3.29,3.29,0,0,1,.8-2.28,2.54,2.54,0,0,1,2-.88A2.24,2.24,0,0,1,48,4.82a3.2,3.2,0,0,1,.65,2.12Zm-1-.81a2,2,0,0,0-.4-1.3,1.36,1.36,0,0,0-1.1-.46A1.52,1.52,0,0,0,45,5.36a2.19,2.19,0,0,0-.59,1.27Z"/></svg>